<svg width="200" height="151" viewBox="0 0 200 151" fill="none" xmlns="http://www.w3.org/2000/svg">
<path d="M41.333 5C61.3992 5 77.6668 21.2668 77.667 41.333C77.667 61.3994 61.3994 77.667 41.333 77.667C21.2668 77.6668 5 61.3993 5 41.333C5.00018 21.2669 21.2669 5.00018 41.333 5Z" stroke="#0B1419" stroke-width="10" fill="none"/>
<path d="M41.3334 26.3333C49.6176 26.3333 56.3334 33.049 56.3334 41.3333C56.3334 49.6176 49.6176 56.3333 41.3334 56.3333C33.0491 56.3333 26.3334 49.6176 26.3334 41.3333C26.3334 33.049 33.0491 26.3333 41.3334 26.3333Z" stroke="#0B1419" stroke-width="10" fill="none"/>
<path d="M149.333 98.3333L50.6665 98.3333C41.3332 98.3333 40.2665 119.667 57.3331 135.667C78.6665 155.667 121.333 154.333 141.333 135.667C160.828 117.472 157.333 98.3333 149.333 98.3333Z" fill="#0B1419"/>
<path d="M158.666 5C178.733 5 195 21.2668 195 41.333C195 61.3994 178.733 77.667 158.666 77.667C138.6 77.6668 122.333 61.3993 122.333 41.333C122.334 21.2669 138.6 5.00018 158.666 5Z" stroke="#0B1419" stroke-width="10" fill="none"/>
<path d="M158.667 26.3333C166.951 26.3333 173.667 33.049 173.667 41.3333C173.667 49.6176 166.951 56.3333 158.667 56.3333C150.382 56.3333 143.667 49.6176 143.667 41.3333C143.667 33.049 150.382 26.3333 158.667 26.3333Z" stroke="#0B1419" stroke-width="10" fill="none"/>
</svg>
