<svg viewBox="0 0 200 138" fill="none" xmlns="http://www.w3.org/2000/svg">
<ellipse cx="98.125" cy="98.8393" rx="28.125" ry="38.8393" fill="#0B1419"/>
<path d="M122 22.7763C122 41.7026 137.678 51.7865 149.152 60.8158C153.2 63.9993 157.1 67 161 67C164.9 67 168.8 64.0032 172.848 60.8119C184.326 51.7904 200 41.7026 200 22.7802C200 3.85775 178.55 -9.57321 161 8.62534C143.45 -9.57321 122 3.84997 122 22.7763Z" fill="#0B1419"/>
<path d="M0 22.7763C0 41.7026 15.678 51.7865 27.1518 60.8158C31.2 63.9993 35.1 67 39 67C42.9 67 46.8 64.0032 50.8482 60.8119C62.3259 51.7904 78 41.7026 78 22.7802C78 3.85775 56.55 -9.57321 39 8.62534C21.45 -9.57321 0 3.84997 0 22.7763Z" fill="#0B1419"/>
</svg>
