<svg width="220" height="148" viewBox="0 0 220 148" fill="none" xmlns="http://www.w3.org/2000/svg">
<path fill-rule="evenodd" clip-rule="evenodd" d="M142.152 7.86851C146.679 3.34032 152.675 0.578556 159.059 0.0811846C165.443 -0.416187 171.794 1.38356 176.968 5.15593C182.435 1.20086 189.189 -0.552518 195.889 0.244317C202.59 1.04115 208.744 4.32985 213.131 9.45673C217.517 14.5836 219.814 21.1733 219.564 27.9159C219.315 34.6586 216.538 41.0605 211.784 45.8492L186.462 71.1712C183.944 73.6886 180.529 77 176.968 77C173.408 77 169.993 73.6886 167.474 71.1712L142.152 45.8537C137.116 40.817 134.287 33.986 134.287 26.8633C134.287 19.7406 137.116 12.9052 142.152 7.86851Z" fill="#0B1419"/>
<path fill-rule="evenodd" clip-rule="evenodd" d="M7.86569 7.86851C12.3929 3.34032 18.3889 0.578556 24.7726 0.0811846C31.1564 -0.416187 37.5078 1.38356 42.6817 5.15593C48.1482 1.20086 54.9028 -0.552518 61.6028 0.244317C68.3029 1.04115 74.4578 4.32985 78.8442 9.45673C83.2306 14.5836 85.5274 21.1733 85.2779 27.9159C85.0284 34.6586 82.251 41.0605 77.4977 45.8492L52.1757 71.1712C49.6575 73.6886 46.2425 77 42.6817 77C39.1209 77 35.7059 73.6886 33.1876 71.1712L7.86569 45.8537C2.82936 40.817 0 33.986 0 26.8633C0 19.7406 2.82936 12.9052 7.86569 7.86851Z" fill="#0B1419"/>
<ellipse cx="108.125" cy="108.839" rx="28.125" ry="38.8393" fill="#0B1419"/>
</svg>
