<svg width="238" height="145" viewBox="0 0 238 145" fill="none" xmlns="http://www.w3.org/2000/svg">
<path d="M55.0163 9.08494C56.8504 5.36871 62.1496 5.3687 63.9837 9.08493L75.8233 33.0745C76.5516 34.5502 77.9594 35.5731 79.5879 35.8097L106.062 39.6566C110.163 40.2526 111.801 45.2924 108.833 48.1851L89.6763 66.8584C88.4978 68.0071 87.9601 69.6621 88.2383 71.2841L92.7606 97.6512C93.4612 101.736 89.174 104.851 85.5059 102.922L61.8267 90.4732C60.3701 89.7074 58.6299 89.7074 57.1733 90.4732L33.4942 102.922C29.826 104.851 25.5388 101.736 26.2394 97.6512L30.7617 71.2841C31.0399 69.6621 30.5022 68.0071 29.3237 66.8584L10.1669 48.1851C7.19931 45.2924 8.83685 40.2526 12.938 39.6567L39.4121 35.8097C41.0406 35.5731 42.4484 34.5503 43.1767 33.0745L55.0163 9.08494Z" fill="#0B1419"/>
<path d="M174.016 9.08494C175.85 5.36871 181.15 5.3687 182.984 9.08493L194.823 33.0745C195.552 34.5502 196.959 35.5731 198.588 35.8097L225.062 39.6566C229.163 40.2526 230.801 45.2924 227.833 48.1851L208.676 66.8584C207.498 68.0071 206.96 69.6621 207.238 71.2841L211.761 97.6512C212.461 101.736 208.174 104.851 204.506 102.922L180.827 90.4732C179.37 89.7074 177.63 89.7074 176.173 90.4732L152.494 102.922C148.826 104.851 144.539 101.736 145.239 97.6512L149.762 71.2841C150.04 69.6621 149.502 68.0071 148.324 66.8584L129.167 48.1851C126.199 45.2924 127.837 40.2526 131.938 39.6567L158.412 35.8097C160.041 35.5731 161.448 34.5503 162.177 33.0745L174.016 9.08494Z" fill="#0B1419"/>
<path d="M80.1245 134.062H156.984" stroke="#0B1419" stroke-width="20" stroke-linecap="round"/>
</svg>
